<?xml version="1.0" encoding="utf-8"?>
<!-- Generator: Adobe Illustrator 16.0.0, SVG Export Plug-In . SVG Version: 6.00 Build 0)  -->
<!DOCTYPE svg PUBLIC "-//W3C//DTD SVG 1.1//EN" "http://www.w3.org/Graphics/SVG/1.1/DTD/svg11.dtd">
<svg version="1.1" id="Ebene_1" xmlns="http://www.w3.org/2000/svg" xmlns:xlink="http://www.w3.org/1999/xlink" x="0px" y="0px"
	 width="378px" height="224px" viewBox="-232.281 709.417 378 224" enable-background="new -232.281 709.417 378 224"
	 xml:space="preserve">
<g>
	<g>
		<path fill="#FFFFFF" d="M-71.018,865.03v-21.823h14.097v2.608h-10.471v6.49h8.815v2.481h-8.815v7.603h10.947v2.641H-71.018z"/>
		<path fill="#FFFFFF" d="M-52.051,860.257v-10.782h3.469v9.988c0,1.718,0.159,3.18,2.419,3.18c1.051,0,2.642-0.572,3.978-1.749
			v-11.421c1.178,0,2.322-0.032,3.469-0.032v15.588h-3.309l-0.064-1.718l-0.096-0.063c-1.972,1.748-4.105,2.132-5.25,2.132
			C-51.638,865.38-52.051,862.835-52.051,860.257z"/>
		<path fill="#FFFFFF" d="M-30.059,851.923c1.623-1.495,4.011-2.863,5.665-2.863c0.541,0,0.828,0.286,0.828,0.924
			c0,0.827-0.54,2.576-1.114,3.308c-1.781,0.096-3.595,0.255-5.346,0.351v11.389h-3.501v-15.556h3.437
			c-0.031,0.7-0.096,1.622-0.158,2.322L-30.059,851.923z"/>
		<path fill="#FFFFFF" d="M-13.759,865.316c-5.411,0-7.191-3.69-7.191-8.019c0-4.23,2.066-8.175,7.446-8.175
			c5.473,0,7.256,3.944,7.256,8.144C-6.248,861.403-8.095,865.316-13.759,865.316z M-13.504,851.668
			c-3.057,0-3.852,2.927-3.852,5.63c0,2.959,0.605,5.474,3.852,5.474c3.022,0,3.627-2.77,3.627-5.474
			C-9.878,854.658-10.419,851.668-13.504,851.668z"/>
		<path fill="#FFFFFF" d="M1.812,850.969c1.401-1.113,3.12-1.719,4.679-1.719c4.615,0,5.984,3.563,5.984,7.859
			c0,4.58-1.72,8.207-6.43,8.207c-1.146,0-3.023-0.191-4.297-1.019v7.349h-3.468v-22.205H1.59l0.063,1.4L1.812,850.969z
			 M8.972,856.98c0-4.007-1.463-5.09-3.532-5.09c-1.146,0-2.96,0.766-3.659,1.434v8.491c0.668,0.479,2.29,0.987,3.532,0.987
			C7.223,862.803,8.972,861.498,8.972,856.98z"/>
		<path fill="#FFFFFF" d="M29.603,862.612h2.068l0.19,1.973c-0.893,0.445-2.164,0.698-3.215,0.698c-1.305,0-2.133-0.315-2.228-1.908
			c0-0.031-0.03-0.031-0.062-0.062c-2.291,1.971-4.456,2.004-5.377,2.004c-3.724,0-4.679-2.704-4.679-4.487
			c0-2.989,2.736-4.547,6.174-4.706l3.786-0.256v-0.857c0-2.291-0.698-3.15-3.15-3.15c-1.527,0-3.342,0.317-4.868,0.827
			c-0.191-0.73-0.414-1.495-0.639-2.226c1.784-0.795,4.266-1.272,6.334-1.272c3.501,0,5.665,1.367,5.665,5.281V862.612z
			 M20.439,847.215c-1.115,0-1.784-0.699-1.784-1.652c0-0.955,0.733-1.655,1.752-1.655c1.145,0,1.846,0.669,1.846,1.655
			C22.253,846.515,21.552,847.215,20.439,847.215z M22.666,858.062c-1.846,0.127-2.704,0.986-2.704,2.386
			c0,1.622,0.731,2.449,2.514,2.449c1.178,0,2.546-0.637,3.786-1.75v-3.34L22.666,858.062z M26.676,847.215
			c-1.05,0-1.687-0.699-1.687-1.652c0-0.955,0.7-1.655,1.687-1.655c1.178,0,1.878,0.669,1.878,1.655
			C28.553,846.515,27.853,847.215,26.676,847.215z"/>
		<path fill="#FFFFFF" d="M37.932,847.278c-1.241,0-2.1-0.922-2.1-2.004c0-1.146,0.858-2.036,2.1-2.036
			c1.306,0,2.164,0.891,2.164,2.036C40.096,846.356,39.238,847.278,37.932,847.278z M36.182,865.03v-15.556h3.468v15.556H36.182z"/>
		<path fill="#FFFFFF" d="M55.844,850.271c-0.223,0.445-0.668,1.811-0.891,2.258c-1.624-0.638-2.96-0.827-4.106-0.827
			c-1.432,0-2.735,0.51-2.735,1.972c0,1.146,1.814,1.687,3.055,2.067c2.609,0.764,5.537,1.526,5.537,4.963
			c0,3.054-2.513,4.549-6.651,4.549c-1.813,0-4.297-0.383-5.92-1.242l0.925-2.259c2.227,0.924,3.977,1.051,5.06,1.051
			c1.751,0,3.149-0.508,3.149-2.13c0-1.466-1.525-1.88-3.117-2.419c-2.77-0.923-5.411-1.623-5.411-4.613
			c0-2.991,2.418-4.518,6.078-4.518C52.281,849.124,54.349,849.41,55.844,850.271z"/>
		<path fill="#FFFFFF" d="M68.22,862.579c1.559,0,2.863-0.35,4.359-0.923l0.764,2.323c-1.433,0.765-3.532,1.272-5.632,1.272
			c-5.538,0-7.193-3.438-7.193-7.825c0-3.467,1.306-8.304,7.383-8.304c1.369,0,2.96,0.127,4.647,0.764l-0.638,2.482
			c-1.432-0.446-2.578-0.511-3.562-0.511c-2.77,0-4.297,2.068-4.297,5.346C64.052,860.386,65.038,862.579,68.22,862.579z"/>
		<path fill="#FFFFFF" d="M80.796,850.842c1.812-1.019,3.977-1.751,5.409-1.751c4.233,0,4.647,2.577,4.647,5.187v10.753h-3.47
			v-9.989c0-2.005-0.222-3.182-2.48-3.182c-1.272,0-2.993,0.669-4.203,1.368v11.803H77.2V842.35h3.437v5.057l-0.095,3.31
			L80.796,850.842z"/>
		<path fill="#FFFFFF" d="M109.239,856.6v1.239H98.895c0,2.673,1.051,4.804,4.201,4.804c1.75,0,3.309-0.382,4.996-1.05l0.765,2.164
			c-1.942,1.05-4.043,1.495-6.174,1.495c-5.856,0-7.318-3.659-7.318-7.985c0-3.054,1.209-8.176,7.191-8.176
			C108.984,849.091,109.239,854.277,109.239,856.6z M98.959,855.932h7.065c0-2.641-0.765-4.485-3.342-4.485
			C99.976,851.446,99.119,853.577,98.959,855.932z"/>
		<path fill="#FFFFFF" d="M124.633,850.271c-0.224,0.445-0.669,1.811-0.892,2.258c-1.623-0.638-2.96-0.827-4.105-0.827
			c-1.433,0-2.736,0.51-2.736,1.972c0,1.146,1.813,1.687,3.055,2.067c2.61,0.764,5.537,1.526,5.537,4.963
			c0,3.054-2.514,4.549-6.651,4.549c-1.813,0-4.296-0.383-5.92-1.242l0.925-2.259c2.227,0.924,3.978,1.051,5.061,1.051
			c1.75,0,3.149-0.508,3.149-2.13c0-1.466-1.526-1.88-3.118-2.419c-2.769-0.923-5.411-1.623-5.411-4.613
			c0-2.991,2.419-4.518,6.079-4.518C121.068,849.124,123.137,849.41,124.633,850.271z"/>
		<path fill="#FFFFFF" d="M-57.971,896.838v-10.084h-9.42c0,3.341,0.032,6.743,0.032,10.084h-3.66v-21.789h3.66
			c0,3.021-0.032,5.948-0.032,8.97h9.42v-8.97h3.66v21.789H-57.971z"/>
		<path fill="#FFFFFF" d="M-36.156,894.42h2.07l0.189,1.973c-0.892,0.444-2.163,0.698-3.215,0.698c-1.305,0-2.132-0.316-2.228-1.907
			c0-0.031-0.031-0.031-0.063-0.062c-2.29,1.97-4.454,2.003-5.376,2.003c-3.724,0-4.677-2.704-4.677-4.487
			c0-2.99,2.735-4.547,6.174-4.706l3.786-0.256v-0.857c0-2.291-0.7-3.149-3.15-3.149c-1.528,0-3.342,0.317-4.869,0.827
			c-0.191-0.731-0.414-1.495-0.638-2.226c1.783-0.796,4.265-1.272,6.333-1.272c3.501,0,5.664,1.367,5.664,5.281V894.42z
			 M-43.092,889.87c-1.846,0.128-2.706,0.987-2.706,2.388c0,1.622,0.732,2.448,2.515,2.448c1.177,0,2.546-0.637,3.786-1.75v-3.34
			L-43.092,889.87z"/>
		<path fill="#FFFFFF" d="M-19.797,896.838v-9.988c0-2.098-0.35-3.182-2.481-3.182c-1.272,0-2.99,0.669-4.201,1.368v11.803h-3.502
			v-15.555h3.343l0.031,1.366l0.127,0.063c1.782-1.145,3.946-1.812,5.443-1.812c4.2,0,4.709,2.577,4.709,5.186v10.752
			L-19.797,896.838L-19.797,896.838z"/>
		<path fill="#FFFFFF" d="M-0.535,882.078c-0.223,0.444-0.668,1.812-0.891,2.259c-1.624-0.638-2.96-0.827-4.106-0.827
			c-1.433,0-2.737,0.509-2.737,1.971c0,1.146,1.814,1.688,3.057,2.067c2.607,0.765,5.536,1.527,5.536,4.963
			c0,3.054-2.513,4.549-6.65,4.549c-1.813,0-4.297-0.382-5.92-1.24l0.925-2.26c2.226,0.922,3.977,1.05,5.059,1.05
			c1.752,0,3.15-0.508,3.15-2.131c0-1.464-1.527-1.878-3.119-2.419c-2.769-0.922-5.409-1.622-5.409-4.612
			c0-2.992,2.418-4.517,6.078-4.517C-4.1,880.933-2.031,881.219-0.535,882.078z"/>
		<path fill="#FFFFFF" d="M18.013,888.409v1.237H7.671c0,2.674,1.051,4.805,4.202,4.805c1.748,0,3.309-0.382,4.996-1.05l0.764,2.164
			c-1.94,1.05-4.041,1.495-6.174,1.495c-5.855,0-7.319-3.659-7.319-7.985c0-3.054,1.209-8.176,7.192-8.176
			C17.76,880.9,18.013,886.086,18.013,888.409z M7.734,887.738h7.066c0-2.64-0.766-4.483-3.343-4.483
			C8.753,883.255,7.892,885.386,7.734,887.738z"/>
		<path fill="#FFFFFF" d="M42.113,896.838v-10.084c0-2.004-0.446-3.053-2.482-3.053c-1.209,0-2.928,0.54-3.979,1.24
			c0.127,0.698,0.158,1.526,0.158,2.067v9.829h-3.436c0-3.501-0.033-6.996-0.033-10.497c0-1.781-0.827-2.608-2.226-2.608
			c-1.307,0-2.834,0.572-4.073,1.335v11.771h-3.469v-15.555h3.309l0.062,1.464l0.128,0.094c1.75-1.239,3.787-1.877,5.315-1.877
			c1.718,0,2.991,0.604,3.788,1.94c1.495-1.111,3.881-1.972,5.601-1.972c4.297,0,4.837,2.769,4.837,5.346v10.56H42.113z"/>
		<path fill="#FFFFFF" d="M50.627,892.065v-10.782h3.468v9.988c0,1.718,0.158,3.18,2.418,3.18c1.052,0,2.642-0.571,3.978-1.748
			v-11.421c1.179,0,2.323-0.032,3.469-0.032v15.587h-3.31l-0.062-1.718l-0.098-0.064c-1.973,1.75-4.105,2.132-5.25,2.132
			C51.039,897.187,50.627,894.644,50.627,892.065z"/>
		<path fill="#FFFFFF" d="M79.803,882.078c-0.224,0.444-0.668,1.812-0.892,2.259c-1.623-0.638-2.96-0.827-4.104-0.827
			c-1.433,0-2.737,0.509-2.737,1.971c0,1.146,1.814,1.688,3.054,2.067c2.611,0.765,5.539,1.527,5.539,4.963
			c0,3.054-2.514,4.549-6.651,4.549c-1.814,0-4.296-0.382-5.918-1.24l0.922-2.26c2.229,0.922,3.979,1.05,5.06,1.05
			c1.751,0,3.151-0.508,3.151-2.131c0-1.464-1.527-1.878-3.12-2.419c-2.768-0.922-5.409-1.622-5.409-4.612
			c0-2.992,2.418-4.517,6.079-4.517C76.24,880.933,78.307,881.219,79.803,882.078z"/>
		<path fill="#FFFFFF" d="M98.353,888.409v1.237H88.009c0,2.674,1.052,4.805,4.201,4.805c1.751,0,3.31-0.382,4.998-1.05l0.764,2.164
			c-1.941,1.05-4.043,1.495-6.173,1.495c-5.856,0-7.321-3.659-7.321-7.985c0-3.054,1.21-8.176,7.192-8.176
			C98.097,880.9,98.353,886.086,98.353,888.409z M88.074,887.738h7.064c0-2.64-0.765-4.483-3.341-4.483
			C89.092,883.255,88.232,885.386,88.074,887.738z"/>
		<path fill="#FFFFFF" d="M102.819,892.065v-10.782h3.469v9.988c0,1.718,0.159,3.18,2.419,3.18c1.05,0,2.642-0.571,3.978-1.748
			v-11.421c1.179,0,2.324-0.032,3.468-0.032v15.587h-3.309l-0.063-1.718l-0.096-0.064c-1.974,1.75-4.105,2.132-5.251,2.132
			C103.233,897.187,102.819,894.644,102.819,892.065z"/>
		<path fill="#FFFFFF" d="M140.717,896.838v-10.084c0-2.004-0.445-3.053-2.482-3.053c-1.209,0-2.927,0.54-3.978,1.24
			c0.128,0.698,0.16,1.526,0.16,2.067v9.829h-3.438c0-3.501-0.029-6.996-0.029-10.497c0-1.781-0.828-2.608-2.229-2.608
			c-1.306,0-2.832,0.572-4.074,1.335v11.771h-3.469v-15.555h3.31l0.064,1.464l0.127,0.094c1.75-1.239,3.786-1.877,5.314-1.877
			c1.719,0,2.992,0.604,3.787,1.94c1.495-1.111,3.883-1.972,5.602-1.972c4.296,0,4.837,2.769,4.837,5.346v10.56H140.717z"/>
	</g>
	<path fill="#FFFFFF" d="M-109.401,827.005c-1.442-27.718-15.97-36.86-40.677-35.57c-6.932,0.364-15.487,1.654-23.493,3.738
		l-22.708,23.476l-5.756-109.94l-5.814,0.305l-22.932,27.811l10.271,195.883l30.409-1.592l-5.349-102.078
		c11.44-7.48,23.855-12.264,34.012-12.798c16.751-0.877,22.384,6.813,23.302,24.381l4.597,87.531l29.37-1.538L-109.401,827.005z"/>
</g>
</svg>
